<svg width="48" height="48" viewBox="0 0 48 48" fill="none" xmlns="http://www.w3.org/2000/svg">
<path d="M36.375 11.625H25.125V9.375C25.125 9.07663 25.0065 8.79048 24.7955 8.5795C24.5845 8.36853 24.2984 8.25 24 8.25C23.7016 8.25 23.4155 8.36853 23.2045 8.5795C22.9935 8.79048 22.875 9.07663 22.875 9.375V11.625H11.625C11.0283 11.625 10.456 11.8621 10.034 12.284C9.61205 12.706 9.375 13.2783 9.375 13.875V30.75C9.375 31.3467 9.61205 31.919 10.034 32.341C10.456 32.7629 11.0283 33 11.625 33H17.16L14.1211 36.7969C13.9346 37.03 13.8484 37.3276 13.8813 37.6243C13.9143 37.921 14.0638 38.1924 14.2969 38.3789C14.53 38.5654 14.8276 38.6516 15.1243 38.6187C15.421 38.5857 15.6924 38.4362 15.8789 38.2031L20.04 33H27.96L32.1211 38.2031C32.2134 38.3185 32.3276 38.4146 32.4571 38.4859C32.5865 38.5572 32.7288 38.6023 32.8757 38.6187C33.0226 38.635 33.1713 38.6222 33.3133 38.5811C33.4552 38.5399 33.5877 38.4712 33.7031 38.3789C33.8185 38.2866 33.9146 38.1724 33.9859 38.0429C34.0572 37.9135 34.1023 37.7712 34.1187 37.6243C34.135 37.4774 34.1222 37.3287 34.0811 37.1867C34.0399 37.0448 33.9712 36.9123 33.8789 36.7969L30.84 33H36.375C36.9717 33 37.544 32.7629 37.966 32.341C38.3879 31.919 38.625 31.3467 38.625 30.75V13.875C38.625 13.2783 38.3879 12.706 37.966 12.284C37.544 11.8621 36.9717 11.625 36.375 11.625ZM36.375 30.75H11.625V13.875H36.375V30.75ZM20.625 22.875V26.25C20.625 26.5484 20.5065 26.8345 20.2955 27.0455C20.0845 27.2565 19.7984 27.375 19.5 27.375C19.2016 27.375 18.9155 27.2565 18.7045 27.0455C18.4935 26.8345 18.375 26.5484 18.375 26.25V22.875C18.375 22.5766 18.4935 22.2905 18.7045 22.0795C18.9155 21.8685 19.2016 21.75 19.5 21.75C19.7984 21.75 20.0845 21.8685 20.2955 22.0795C20.5065 22.2905 20.625 22.5766 20.625 22.875ZM25.125 20.625V26.25C25.125 26.5484 25.0065 26.8345 24.7955 27.0455C24.5845 27.2565 24.2984 27.375 24 27.375C23.7016 27.375 23.4155 27.2565 23.2045 27.0455C22.9935 26.8345 22.875 26.5484 22.875 26.25V20.625C22.875 20.3266 22.9935 20.0405 23.2045 19.8295C23.4155 19.6185 23.7016 19.5 24 19.5C24.2984 19.5 24.5845 19.6185 24.7955 19.8295C25.0065 20.0405 25.125 20.3266 25.125 20.625ZM29.625 18.375V26.25C29.625 26.5484 29.5065 26.8345 29.2955 27.0455C29.0845 27.2565 28.7984 27.375 28.5 27.375C28.2016 27.375 27.9155 27.2565 27.7045 27.0455C27.4935 26.8345 27.375 26.5484 27.375 26.25V18.375C27.375 18.0766 27.4935 17.7905 27.7045 17.5795C27.9155 17.3685 28.2016 17.25 28.5 17.25C28.7984 17.25 29.0845 17.3685 29.2955 17.5795C29.5065 17.7905 29.625 18.0766 29.625 18.375Z" fill="#51ACD9"/>
</svg>
