<svg width="48" height="48" viewBox="0 0 48 48" fill="none" xmlns="http://www.w3.org/2000/svg">
<path d="M33 25.125L35.151 29.2909L39.75 29.9591L36.375 33L37.2424 37.5L33 34.9688L28.7576 37.5L29.625 33L26.25 29.9591L30.975 29.2909L33 25.125ZM12.75 24H19.5V26.25H12.75V24ZM12.75 19.5H24V21.75H12.75V19.5ZM12.75 15H24V17.25H12.75V15Z" fill="#51ACD9"/>
<path d="M24 35.25H10.5V12.75H37.5V24H39.75V12.75C39.75 12.1533 39.5129 11.581 39.091 11.159C38.669 10.7371 38.0967 10.5 37.5 10.5H10.5C9.90326 10.5 9.33097 10.7371 8.90901 11.159C8.48705 11.581 8.25 12.1533 8.25 12.75V35.25C8.25 35.8467 8.48705 36.419 8.90901 36.841C9.33097 37.2629 9.90326 37.5 10.5 37.5H24V35.25Z" fill="#51ACD9"/>
</svg>
