<svg width="48" height="48" viewBox="0 0 48 48" fill="none" xmlns="http://www.w3.org/2000/svg">
<path fill-rule="evenodd" clip-rule="evenodd" d="M25.5 12C25.5 11.6022 25.342 11.2206 25.0607 10.9393C24.7794 10.658 24.3978 10.5 24 10.5C23.6022 10.5 23.2206 10.658 22.9393 10.9393C22.658 11.2206 22.5 11.6022 22.5 12V13.5C20.9087 13.5 19.3826 14.1321 18.2574 15.2574C17.1321 16.3826 16.5 17.9087 16.5 19.5C16.5 21.0913 17.1321 22.6174 18.2574 23.7426C19.3826 24.8679 20.9087 25.5 22.5 25.5V31.5C21.8795 31.5003 21.2741 31.3082 20.7673 30.9501C20.2605 30.592 19.8772 30.0855 19.6702 29.5005C19.5326 29.1323 19.2559 28.8329 18.8997 28.6666C18.5435 28.5004 18.1363 28.4805 17.7657 28.6115C17.395 28.7424 17.0906 29.0136 16.9178 29.3667C16.7451 29.7197 16.7179 30.1265 16.842 30.4995C17.2556 31.6696 18.0218 32.6826 19.0351 33.3991C20.0484 34.1156 21.259 34.5002 22.5 34.5V36C22.5 36.3978 22.658 36.7794 22.9393 37.0607C23.2206 37.342 23.6022 37.5 24 37.5C24.3978 37.5 24.7794 37.342 25.0607 37.0607C25.342 36.7794 25.5 36.3978 25.5 36V34.5C27.0913 34.5 28.6174 33.8679 29.7426 32.7426C30.8679 31.6174 31.5 30.0913 31.5 28.5C31.5 26.9087 30.8679 25.3826 29.7426 24.2574C28.6174 23.1321 27.0913 22.5 25.5 22.5V16.5C26.1205 16.4997 26.7259 16.6918 27.2327 17.0499C27.7395 17.408 28.1228 17.9145 28.3298 18.4995C28.4674 18.8677 28.7441 19.1671 29.1003 19.3334C29.4565 19.4996 29.8637 19.5195 30.2343 19.3885C30.605 19.2576 30.9094 18.9864 31.0822 18.6333C31.2549 18.2803 31.2821 17.8735 31.158 17.5005C30.7444 16.3304 29.9782 15.3174 28.9649 14.6009C27.9516 13.8844 26.741 13.4998 25.5 13.5V12ZM22.5 16.5C21.7044 16.5 20.9413 16.8161 20.3787 17.3787C19.8161 17.9413 19.5 18.7044 19.5 19.5C19.5 20.2956 19.8161 21.0587 20.3787 21.6213C20.9413 22.1839 21.7044 22.5 22.5 22.5V16.5ZM25.5 25.5V31.5C26.2956 31.5 27.0587 31.1839 27.6213 30.6213C28.1839 30.0587 28.5 29.2956 28.5 28.5C28.5 27.7044 28.1839 26.9413 27.6213 26.3787C27.0587 25.8161 26.2956 25.5 25.5 25.5Z" fill="#51ACD9"/>
</svg>
