<svg width="48" height="48" viewBox="0 0 48 48" fill="none" xmlns="http://www.w3.org/2000/svg">
<g clip-path="url(#clip0_1_12)">
<path d="M24 25.25C25.3261 25.25 26.5979 24.7232 27.5355 23.7855C28.4732 22.8479 29 21.5761 29 20.25C29 18.9239 28.4732 17.6521 27.5355 16.7145C26.5979 15.7768 25.3261 15.25 24 15.25C22.6739 15.25 21.4021 15.7768 20.4645 16.7145C19.5268 17.6521 19 18.9239 19 20.25C19 21.5761 19.5268 22.8479 20.4645 23.7855C21.4021 24.7232 22.6739 25.25 24 25.25ZM24 25.25C22.0109 25.25 20.1032 26.0402 18.6967 27.4467C17.2902 28.8532 16.5 30.7609 16.5 32.75V36.5M24 25.25C25.9891 25.25 27.8968 26.0402 29.3033 27.4467C30.7098 28.8532 31.5 30.7609 31.5 32.75V36.5M25.25 15.25C25.755 13.17 27.7687 11.5 30.25 11.5C32.965 11.5 35.225 13.7375 35.25 16.5C35.225 19.2625 32.965 21.5 30.25 21.5M30.25 21.5H29M30.25 21.5C34.36 21.5 37.75 24.8575 37.75 29V31.5M22.75 15.25C22.245 13.17 20.2313 11.5 17.75 11.5C15.035 11.5 12.775 13.7375 12.75 16.5C12.775 19.2625 15.035 21.5 17.75 21.5M17.75 21.5H19M17.75 21.5C13.64 21.5 10.25 24.8575 10.25 29V31.5" stroke="#51ACD9" stroke-width="3"/>
</g>
<defs>
<clipPath id="clip0_1_12">
<rect width="30" height="30" fill="white" transform="translate(9 9)"/>
</clipPath>
</defs>
</svg>
