<svg width="48" height="48" viewBox="0 0 48 48" fill="none" xmlns="http://www.w3.org/2000/svg">
<path d="M17.275 22.4875C19.075 26.025 21.975 28.925 25.5125 30.725L28.2625 27.975C28.6125 27.625 29.1 27.525 29.5375 27.6625C30.9375 28.125 32.4375 28.375 34 28.375C34.3315 28.375 34.6495 28.5067 34.8839 28.7411C35.1183 28.9755 35.25 29.2935 35.25 29.625V34C35.25 34.3315 35.1183 34.6495 34.8839 34.8839C34.6495 35.1183 34.3315 35.25 34 35.25C28.3641 35.25 22.9591 33.0112 18.974 29.026C14.9888 25.0409 12.75 19.6359 12.75 14C12.75 13.6685 12.8817 13.3505 13.1161 13.1161C13.3505 12.8817 13.6685 12.75 14 12.75H18.375C18.7065 12.75 19.0245 12.8817 19.2589 13.1161C19.4933 13.3505 19.625 13.6685 19.625 14C19.625 15.5625 19.875 17.0625 20.3375 18.4625C20.475 18.9 20.375 19.3875 20.025 19.7375L17.275 22.4875Z" fill="#51ACD9"/>
</svg>
