<svg width="48" height="48" viewBox="0 0 48 48" fill="none" xmlns="http://www.w3.org/2000/svg">
<path d="M28.5 12C26.9087 12 25.3826 12.6321 24.2574 13.7574C23.1321 14.8826 22.5 16.4087 22.5 18C22.5 19.5913 23.1321 21.1174 24.2574 22.2426C25.3826 23.3679 26.9087 24 28.5 24C30.0913 24 31.6174 23.3679 32.7426 22.2426C33.8679 21.1174 34.5 19.5913 34.5 18C34.5 16.4087 33.8679 14.8826 32.7426 13.7574C31.6174 12.6321 30.0913 12 28.5 12ZM28.5 14.85C28.9137 14.85 29.3233 14.9315 29.7055 15.0898C30.0876 15.2481 30.4349 15.4801 30.7274 15.7726C31.0199 16.0651 31.2519 16.4124 31.4102 16.7945C31.5685 17.1767 31.65 17.5863 31.65 18C31.65 18.4137 31.5685 18.8233 31.4102 19.2055C31.2519 19.5876 31.0199 19.9349 30.7274 20.2274C30.4349 20.5199 30.0876 20.7519 29.7055 20.9102C29.3233 21.0685 28.9137 21.15 28.5 21.15C28.0863 21.15 27.6767 21.0685 27.2945 20.9102C26.9124 20.7519 26.5651 20.5199 26.2726 20.2274C25.9801 19.9349 25.7481 19.5876 25.5898 19.2055C25.4315 18.8233 25.35 18.4137 25.35 18C25.35 17.1646 25.6819 16.3634 26.2726 15.7726C26.8634 15.1819 27.6646 14.85 28.5 14.85ZM12 16.5V21H7.5V24H12V28.5H15V24H19.5V21H15V16.5H12ZM28.5 25.5C24.495 25.5 16.5 27.495 16.5 31.5V36H40.5V31.5C40.5 27.495 32.505 25.5 28.5 25.5ZM28.5 28.35C32.955 28.35 37.65 30.54 37.65 31.5V33.15H19.35V31.5C19.35 30.54 24 28.35 28.5 28.35Z" fill="#51ACD9"/>
</svg>
